<?xml version="1.0" standalone="no"?><!DOCTYPE svg PUBLIC "-//W3C//DTD SVG 1.1//EN" "http://www.w3.org/Graphics/SVG/1.1/DTD/svg11.dtd"><svg t="1682498441640" class="icon" viewBox="0 0 1024 1024" version="1.1" xmlns="http://www.w3.org/2000/svg" p-id="3914" xmlns:xlink="http://www.w3.org/1999/xlink" width="200" height="200"><path d="M330.7 276.3l206.7-17c34.4-2.8 64.6 22.8 67.5 57.2l23.6 286.9c2.8 34.4-22.8 64.6-57.2 67.5l-206.7 17c-34.4 2.8-64.6-22.8-67.5-57.2l-23.6-286.9c-2.9-34.5 22.8-64.7 57.2-67.5z" fill="#FF382E" p-id="3915"></path><path d="M478.2 488.1s-54.7-85.7-119.9-122.5c-25.4-14.3-49.2-32.3-71.6-55-8.7 13.7-13.4 30-12 47.4l21.2 258.3c2.8 34.3 27.9 61.1 59.8 68.4 18.6-70.5 54.2-146.3 122.5-196.6z" fill="#6CD5FF" p-id="3916"></path><path d="M478.2 488.1c-68.3 50.3-103.9 126.1-122.5 196.6 7.4 1.7 15.1 2.6 23.1 2L557 672c42.3-3.5 73.8-40.6 70.3-82.9L606 330.8c-1.1-13.8-6.1-26.2-13.4-36.9-10.8 69.5-43.3 141.9-114.4 194.2z" fill="#FF382E" p-id="3917"></path><path d="M543.7 581.5C478.5 544.7 423.8 459 423.8 459c-71.1 52.4-103.6 124.7-114.4 194.2 15.1 22 41 35.8 69.5 33.4L557 672c24.9-2 45.8-15.9 58.3-35.5-22.4-22.7-46.2-40.7-71.6-55z" fill="#5BEF7E" p-id="3918"></path><path d="M466.7 326.2c31.2-6.1 61.4 14.2 67.5 45.3l56.1 284.8c0.7 3.8 1 7.5 1.1 11.2 18.8-22.2 28.1-52.2 22-83.1l-42.9-218c-9.8-49.6-57.9-81.9-107.5-72.2l-139.1 27.4c-28.3 5.6-51.2 22.9-65.2 45.7 0.7-0.2 1.3-0.5 2.1-0.6l205.9-40.5z" fill="#D81313" opacity=".7" p-id="3919"></path><path d="M361.6 701.4c-18.6 0-36.4-6.5-50.7-18.7-16-13.6-25.8-32.6-27.5-53.5l-23.2-281.8c-1.7-20.9 4.8-41.3 18.4-57.3 13.6-16 32.6-25.8 53.5-27.5L533.8 246c43.5-3.4 81.3 28.7 84.8 71.9l23.2 281.8c1.7 20.9-4.8 41.3-18.4 57.3s-32.6 25.8-53.5 27.5l-201.6 16.6c-2.3 0.2-4.5 0.3-6.7 0.3z m-27.3-411.8c-28.3 2.3-49.5 27.3-47.2 55.6L310.4 627c1.1 13.7 7.5 26.2 18 35.1 10.5 8.9 23.8 13.2 37.6 12.1l201.6-16.6c13.7-1.1 26.2-7.5 35.1-18 8.9-10.5 13.2-23.8 12.1-37.6l-23.2-281.8c-2.3-28.3-27.4-49.4-55.6-47.2l-201.7 16.6z m-1.1-13.5h0.3-0.3z" fill="#3E3A39" p-id="3920"></path><path d="M654.9 515.3m-151.6 0a151.6 151.6 0 1 0 303.2 0 151.6 151.6 0 1 0-303.2 0Z" fill="#FFEDCC" p-id="3921"></path><path d="M585.5 656.6c-0.2-2.9-0.2-5.8-0.8-8.7l-48-243.7c10.9-10.2 23.5-18.8 37.5-25.5l52.3 265.5c1.5 7.5 1.3 14.8 0.3 21.9" fill="#FFCD92" p-id="3922"></path><path d="M796.7 461.6c-11.9-31.5-33.4-56.3-59.7-73.3 13.2 14.1 24 30.8 31.2 50 29.6 78.3-9.8 165.8-88.2 195.5-46.8 17.7-96.7 10.3-135.7-14.9 40.7 43.4 105.1 60.6 164.2 38.2 78.3-29.6 117.8-117.1 88.2-195.5z" fill="#FFFFFF" p-id="3923"></path><path d="M655 680.5c-66.7 0-129.7-40.7-154.7-106.7-15.6-41.3-14.2-86.1 3.9-126.3 18.1-40.2 50.9-71 92.1-86.6 85.2-32.2 180.7 10.9 212.9 96 32.2 85.2-10.9 180.7-96.1 212.9-19 7.2-38.7 10.7-58.1 10.7z m-0.3-303.3c-16.2 0-32.7 2.9-48.7 8.9-34.5 13-61.8 38.7-77 72.4-15.2 33.6-16.3 71.1-3.3 105.6 26.9 71.2 106.7 107.3 178 80.3 71.2-26.9 107.2-106.8 80.3-178-20.9-55.1-73.5-89.2-129.3-89.2z" fill="#3E3A39" p-id="3924"></path><path d="M654.9 528.8c8.4 0 15.4 3.7 19.7 9 3-3.1 4.8-6.6 4.8-9.2 0-6.6-10.9-6-24.4-6s-24.4-0.6-24.4 6c0 2.7 1.8 6.1 4.8 9.2 4.1-5.3 11.1-9 19.5-9z" fill="#FFFFFF" p-id="3925"></path><path d="M674.5 537.7c-4.3-5.3-11.3-9-19.7-9s-15.4 3.7-19.7 9c4.4 4.7 11.6 8.8 19.7 8.8 8.2 0.1 15.3-4 19.7-8.8z" fill="#E95513" p-id="3926"></path><path d="M596.8 527.5c-2 0-4-0.9-5.3-2.6-2.3-2.9-1.8-7.2 1.1-9.5l7.9-6.2-8-6.5c-2.9-2.4-3.3-6.6-1-9.5 2.4-2.9 6.6-3.3 9.5-1l14.5 11.8c1.6 1.3 2.5 3.2 2.5 5.3 0 2-1 4-2.6 5.2L601 526.1c-1.2 0.9-2.7 1.4-4.2 1.4z" fill="#3E3A39" p-id="3927"></path><path d="M712.9 527.5c-1.5 0-2.9-0.5-4.2-1.5l-14.5-11.4c-1.6-1.3-2.6-3.2-2.6-5.2 0-2.1 0.9-4 2.5-5.3l14.5-11.8c2.9-2.4 7.2-1.9 9.5 1 2.4 2.9 1.9 7.2-1 9.5l-8 6.5 7.9 6.2c2.9 2.3 3.4 6.6 1.1 9.5-1.2 1.6-3.2 2.5-5.2 2.5z" fill="#3E3A39" p-id="3928"></path><path d="M380.5 529.9s64 79.1 132.9 108.3c26.9 11.4 52.5 26.6 77.3 46.7 7.1-14.6 10-31.4 6.6-48.5l-50.1-254.3c-6.7-33.8-34.6-57.6-67.1-61.2-10.4 72.1-37.3 151.4-99.6 209z" fill="#6CD5FF" p-id="3929"></path><path d="M380.5 529.9c62.2-57.6 89.1-136.9 99.7-209.1-7.6-0.8-15.3-0.9-23.2 0.6L281.6 356c-41.7 8.2-68.8 48.6-60.6 90.3l50.1 254.3c2.7 13.6 9 25.4 17.5 35.2 2.9-70.3 27.1-145.9 91.9-205.9z" fill="#FFD939" p-id="3930"></path><path d="M513.4 638.2C444.5 609 380.5 529.9 380.5 529.9c-64.8 60-89 135.5-92 205.8 17.5 20.2 44.7 31 72.8 25.4l175.4-34.5c24.5-4.8 43.7-21 54-41.8-24.8-20-50.4-35.2-77.3-46.6z" fill="#00EDDB" p-id="3931"></path><path d="M212.9 431.7l54.6 277.4c5.3 26.8 21.3 47.5 46.5 52.3-0.6-1.8-1.3-3.5-1.6-5.3l-64.1-324.6c-4.3-21.7 9.9-42.8 31.6-47.1l241.8-47.7c2.1-0.4 4.2-0.5 6.4-0.6-14-21.9-38.3-25.3-65.4-20l-198.5 39.1c-35.3 7-58.2 41.2-51.3 76.5z" fill="#FFFFFF" opacity=".8" p-id="3932"></path><path d="M608.9 658.1l-54.6-277.4c-5.3-26.8-26.3-46.4-51.6-51.3 0.6 1.8 1.3 3.5 1.6 5.3l62.2 315.7c4.3 21.7-9.9 42.8-31.6 47.1l-236.8 46.6c-2.1 0.4-4.2 0.5-6.4 0.6 14 21.9 40.3 34.3 67.4 28.9l198.5-39.1c35.3-6.9 58.3-41.1 51.3-76.4z" fill="#2CA6E0" opacity=".5" p-id="3933"></path><path d="M337.2 778.2c-36.8 0-69.8-26-77.2-63.5l-54.6-277.4c-4-20.6 0.2-41.6 11.9-59 11.7-17.4 29.5-29.3 50.1-33.3l198.5-39c20.6-4 41.6 0.1 59 11.9 17.5 11.7 29.3 29.5 33.4 50.1l54.6 277.4c8.4 42.5-19.4 84-62 92.4l-198.5 39.1c-5 0.9-10.1 1.3-15.2 1.3z m144-446.7c-3.3 0-6.7 0.3-10.1 1l-198.5 39.1c-13.5 2.7-25.2 10.4-32.9 21.9-7.7 11.4-10.4 25.2-7.8 38.7l54.6 277.4c5.5 27.9 32.7 46.1 60.6 40.6l198.5-39.1c27.9-5.5 46.1-32.7 40.6-60.6l-54.6-277.4c-2.7-13.5-10.4-25.2-21.9-32.9-8.4-5.7-18.3-8.7-28.5-8.7z m67.1 392.9h0.3-0.3z" fill="#3E3A39" p-id="3934"></path><path d="M223.2 303.3h-37.4c-3.7 0-6.8-3-6.8-6.8s3-6.8 6.8-6.8h37.4c3.7 0 6.8 3 6.8 6.8s-3 6.8-6.8 6.8z" fill="#F7B52C" p-id="3935"></path><path d="M204.5 322c-3.7 0-6.8-3-6.8-6.8v-37.3c0-3.7 3-6.8 6.8-6.8s6.8 3 6.8 6.8v37.3c0 3.7-3 6.8-6.8 6.8z" fill="#F7B52C" p-id="3936"></path><path d="M817.3 305.4c-13.4 0-24.2-10.9-24.2-24.2 0-13.3 10.9-24.2 24.2-24.2 13.3 0 24.2 10.9 24.2 24.2 0 13.3-10.8 24.2-24.2 24.2z m0-34.9c-5.9 0-10.7 4.8-10.7 10.7 0 5.9 4.8 10.7 10.7 10.7 5.9 0 10.7-4.8 10.7-10.7 0-5.9-4.8-10.7-10.7-10.7z" fill="#1EAA39" p-id="3937"></path><path d="M896.5 449.6m-10.5 0a10.5 10.5 0 1 0 21 0 10.5 10.5 0 1 0-21 0Z" fill="#2CA6E0" p-id="3938"></path><path d="M852.2 563.6m-10.5 0a10.5 10.5 0 1 0 21 0 10.5 10.5 0 1 0-21 0Z" fill="#0DAC67" p-id="3939"></path><path d="M836 724h-37.4c-3.7 0-6.8-3-6.8-6.8 0-3.7 3-6.8 6.8-6.8H836c3.7 0 6.8 3 6.8 6.8s-3 6.8-6.8 6.8z" fill="#E95513" p-id="3940"></path><path d="M817.3 742.7c-3.7 0-6.8-3-6.8-6.8v-37.3c0-3.7 3-6.8 6.8-6.8 3.7 0 6.8 3 6.8 6.8v37.3c0 3.7-3 6.8-6.8 6.8z" fill="#E95513" p-id="3941"></path><path d="M149.7 587.8c-13.4 0-24.2-10.9-24.2-24.2 0-13.4 10.9-24.2 24.2-24.2 13.3 0 24.2 10.9 24.2 24.2 0 13.3-10.9 24.2-24.2 24.2z m0-34.9c-5.9 0-10.7 4.8-10.7 10.7 0 5.9 4.8 10.7 10.7 10.7 5.9 0 10.7-4.8 10.7-10.7 0-5.9-4.8-10.7-10.7-10.7z" fill="#2CA6E0" p-id="3942"></path><path d="M226.8 743.6m-10.5 0a10.5 10.5 0 1 0 21 0 10.5 10.5 0 1 0-21 0Z" fill="#FAED00" p-id="3943"></path></svg>