<?xml version="1.0" standalone="no"?><!DOCTYPE svg PUBLIC "-//W3C//DTD SVG 1.1//EN" "http://www.w3.org/Graphics/SVG/1.1/DTD/svg11.dtd"><svg t="1679844868757" class="icon" viewBox="0 0 4345 1024" version="1.1" xmlns="http://www.w3.org/2000/svg" p-id="53706" xmlns:xlink="http://www.w3.org/1999/xlink" width="848.6328125" height="200"><path d="M1461.64166666 538.397c0-9.686-5.093-18.586-13.457-23.383l-222.828-128.243c-3.771-2.215-7.997-3.367-12.269-3.538h-2.305c-4.263 0.17-8.48 1.323-12.305 3.538l-222.837 128.243c-8.302 4.799-13.475 13.699-13.475 23.383l0.491 345.308c0 4.807 2.494 9.275 6.719 11.625 4.137 2.483 9.248 2.483 13.367 0l132.435-75.818c8.373-4.986 13.465-13.753 13.465-23.349v-161.35c0-9.614 5.102-18.505 13.439-23.287l56.393-32.49c4.199-2.422 8.793-3.609 13.493-3.609 4.585 0 9.302 1.188 13.386 3.609l56.366 32.49c8.347 4.78 13.457 13.671 13.457 23.287v161.342c0 9.597 5.165 18.426 13.493 23.349l132.391 75.818c4.156 2.483 9.337 2.483 13.457 0 4.102-2.35 6.684-6.817 6.684-11.625l0.438-345.299z" fill="#333333" p-id="53707"></path><path d="M2651.50966666 63.709c-4.173-2.323-9.266-2.27-13.386 0.143-4.111 2.422-6.639 6.836-6.639 11.607v341.977c0 3.36-1.796 6.47-4.691 8.158-2.913 1.68-6.515 1.68-9.436 0l-55.812-32.159c-8.329-4.799-18.559-4.789-26.896 0.007l-222.917 128.655c-8.337 4.799-13.457 13.689-13.457 23.295v257.355c0 9.614 5.121 18.497 13.449 23.313l222.908 128.745c8.347 4.816 18.595 4.816 26.933 0l222.944-128.745c8.337-4.817 13.457-13.699 13.457-23.313v-641.507c0-9.757-5.281-18.756-13.806-23.51l-132.65-74.022zM2630.83366666 718.192c0 2.412-1.296 4.638-3.378 5.817l-76.524 44.123c-2.082 1.207-4.656 1.207-6.719 0l-76.542-44.123c-2.074-1.189-3.369-3.413-3.369-5.817v-88.382c0-2.404 1.296-4.62 3.36-5.817l76.542-44.205c2.074-1.207 4.647-1.207 6.738 0l76.524 44.205c2.074 1.207 3.369 3.423 3.369 5.817v88.382z" fill="#333333" p-id="53708"></path><path d="M3449.04266666 627.503c8.292-4.817 13.394-13.68 13.394-23.268v-62.362c0-9.588-5.102-18.461-13.403-23.277l-221.488-128.602c-8.347-4.843-18.623-4.852-26.986-0.036l-222.837 128.647c-8.337 4.817-13.457 13.699-13.457 23.313v257.284c0 9.678 5.182 18.595 13.591 23.376l221.452 126.189c8.167 4.665 18.175 4.709 26.396 0.161l133.937-74.452c4.263-2.377 6.898-6.836 6.916-11.687 0.036-4.852-2.547-9.346-6.746-11.75l-224.231-128.726c-4.199-2.395-6.773-6.854-6.773-11.67v-80.635c0-4.809 2.565-9.258 6.746-11.651l69.797-40.246c4.146-2.395 9.284-2.395 13.431 0l69.833 40.246c4.173 2.395 6.738 6.845 6.738 11.651v63.452c0 4.807 2.573 9.258 6.746 11.67 4.173 2.404 9.311 2.386 13.475-0.026l133.472-77.597z" fill="#333333" p-id="53709"></path><path d="M1866.98766666 388.601c8.329-4.807 18.586-4.807 26.914 0l222.882 128.629c8.346 4.799 13.475 13.689 13.475 23.313v257.445c0 9.625-5.129 18.505-13.457 23.322l-222.891 128.718c-8.337 4.807-18.595 4.807-26.933 0l-222.837-128.718c-8.327-4.816-13.457-13.699-13.457-23.322v-257.453c0-9.614 5.129-18.505 13.465-23.303l222.837-128.629z" fill="#6FB309" p-id="53710"></path><path d="M3881.82166666 953.708c-7.675 0-15.334-2.011-22.054-5.898l-70.172-41.515c-10.473-5.861-5.37-7.935-1.904-9.142 13.967-4.853 16.809-5.969 31.731-14.422 1.546-0.885 3.609-0.554 5.218 0.402l53.908 32.007c1.957 1.081 4.701 1.081 6.503 0l210.185-121.319c1.957-1.118 3.199-3.36 3.199-5.683v-242.575c0-2.368-1.251-4.583-3.253-5.782l-210.103-121.212c-1.939-1.134-4.522-1.134-6.47 0l-210.023 121.239c-2.046 1.171-3.333 3.449-3.333 5.754v242.567c0 2.323 1.286 4.521 3.315 5.62l57.563 33.259c31.239 15.62 50.379-2.77 50.379-21.258v-239.475c0-3.386 2.725-6.058 6.103-6.058h26.655c3.333 0 6.095 2.672 6.095 6.058v239.475c0 41.693-22.705 65.605-62.237 65.605-12.153 0-21.713 0-48.413-13.153l-55.116-31.731c-13.618-7.882-22.043-22.59-22.043-38.343v-242.567c0-15.754 8.417-30.471 22.043-38.307l210.174-121.453c13.305-7.515 30.988-7.515 44.177 0l210.158 121.453c13.618 7.882 22.087 22.553 22.087 38.307v242.567c0 15.754-8.462 30.407-22.087 38.343l-210.158 121.337c-6.719 3.888-14.361 5.898-22.133 5.898z" fill="#6FB309" p-id="53711"></path><path d="M3946.74766666 786.603c-91.984 0-111.239-42.221-111.239-77.623 0-3.367 2.707-6.058 6.076-6.058h27.173c3.03 0 5.567 2.172 6.032 5.138 4.102 27.673 16.334 41.622 71.967 41.622 44.267 0 63.121-10.017 63.121-33.508 0-13.538-5.344-23.59-74.157-30.327-57.518-5.701-93.073-18.407-93.073-64.409 0-42.399 35.742-67.696 95.674-67.696 67.33 0 100.642 23.366 104.869 73.513 0.161 1.724-0.465 3.386-1.617 4.673-1.153 1.207-2.752 1.939-4.45 1.939h-27.271c-2.833 0-5.325-2.011-5.906-4.746-6.532-29.111-22.455-38.414-65.632-38.414-48.341 0-53.963 16.843-53.963 29.461 0 15.289 6.63 19.738 71.905 28.38 64.597 8.533 95.273 20.633 95.273 66.034 0 45.795-38.191 72.021-104.779 72.021z" fill="#6FB309" p-id="53712"></path><path d="M3210.77166666 615.459c1.599-0.929 3.556-0.929 5.155 0l42.774 24.681c1.609 0.921 2.582 2.627 2.582 4.467v49.388c0 1.85-0.974 3.547-2.582 4.478l-42.774 24.689c-1.599 0.921-3.556 0.921-5.155 0l-42.74-24.689c-1.609-0.929-2.582-2.627-2.582-4.478v-49.388c0-1.84 0.974-3.547 2.582-4.467l42.74-24.681z" fill="#333333" p-id="53713"></path><path d="M642.18166666 617.711c9.811 5.808 12.134 2.279 15.566 0.313 3.44-1.975 131.309-75.157 139.45-79.143 8.149-3.985 11.75-17.111 1.019-23.322-10.732-6.228-227.054-131.542-216.609-126.172 11.25 5.773-10.74-7.407-23.465-1.564-12.734 5.843-207.583 117.879-221.398 125.767-13.806 7.89-18.158 15.468-18.113 25.975 0.036 10.508-0.697 243.523 0 257.355 0.697 13.833 6.166 18.336 13.457 23.313 7.292 4.986 204.635 120.676 219.566 128.763 14.932 8.105 24.734 5.335 34.43-0.358 9.696-5.71 203.081-116.19 210.818-121.114 7.738-4.924 14.771-17.594-1.402-26.736-16.182-9.132-132.06-77.678-136.527-79.911s-7.113-2.279-13.582 1.349c-6.47 3.646-64.533 36.297-71.601 40.425s-8.078 2.27-11.465 0.295c-3.378-1.984-63.309-36.949-70.225-40.845s-7.738-5.861-7.756-11.169c-0.007-5.299-0.161-72.566 0.205-80.403 0.358-7.837 1.475-9.597 8.596-13.833 7.122-4.236 59.824-35.545 64.033-38.361 4.199-2.815 13.037-3.083 19.935 0.965 6.898 4.039 55.258 32.588 65.069 38.406z" fill="#333333" p-id="53714"></path></svg>