<?xml version="1.0" standalone="no"?><!DOCTYPE svg PUBLIC "-//W3C//DTD SVG 1.1//EN" "http://www.w3.org/Graphics/SVG/1.1/DTD/svg11.dtd"><svg t="1679844828676" class="icon" viewBox="0 0 2427 1024" version="1.1" xmlns="http://www.w3.org/2000/svg" p-id="51387" xmlns:xlink="http://www.w3.org/1999/xlink" width="474.0234375" height="200"><path d="M1450.517333 352.843852c-53.067852 0-92.586667 26.055111-92.586666 88.765629 0 47.246222 26.04563 80.052148 89.723259 80.052149 53.978074 0 90.642963-31.81037 90.642963-82.014815 0-56.888889-32.805926-86.802963-87.779556-86.802963z m-106.097777 442.794667c-12.562963 15.407407-25.078519 31.791407-25.078519 51.105185 0 38.561185 49.170963 50.166519 116.717037 50.166518 55.940741 0 132.152889-3.925333 132.152889-55.940741 0-30.919111-36.664889-32.824889-82.991407-35.726222l-140.8-9.60474z m285.515851-439.883852c17.332148 22.186667 35.688296 53.067852 35.688297 97.431703 0 107.064889-83.920593 169.756444-205.43526 169.756445-30.900148 0-58.870519-3.849481-76.212148-8.666074l-31.848296 51.105185 94.520889 5.783704c166.893037 10.638222 265.244444 15.473778 265.244444 143.710814 0 110.952296-97.393778 173.615407-265.244444 173.615408-174.582519 0-241.142519-44.373333-241.142519-120.566519 0-43.406222 19.294815-66.512593 53.058371-98.398814-31.838815-13.454222-42.439111-37.556148-42.439111-63.620741 0-21.238519 10.600296-40.51437 27.989333-58.861037 17.351111-18.299259 36.636444-36.645926 59.790222-57.865482-47.255704-23.153778-82.962963-73.310815-82.962963-144.70637 0-110.904889 73.320296-187.079111 220.871111-187.079111 41.490963 0 66.578963 3.811556 88.76563 9.642666h188.112593v81.957926l-88.756149 6.760297z m258.455704-175.284148c-54.992593 0-86.821926-31.857778-86.821926-86.859852 0-54.926222 31.819852-84.859259 86.821926-84.85926 55.940741 0 87.779556 29.933037 87.779556 84.85926 0 55.002074-31.829333 86.859852-87.779556 86.859852zM1763.937185 760.139852v-76.164741l49.208889-6.731852c13.511111-1.943704 15.42637-4.826074 15.42637-19.323259V374.328889c0-10.581333-2.88237-17.370074-12.562963-20.233482l-52.072296-18.346666 10.600296-78.108445h199.689482V657.92c0 15.454815 0.929185 17.379556 15.445333 19.332741l49.189926 6.731852v76.155259H1763.937185z m656.374519-37.394963c-41.490963 20.242963-102.257778 38.570667-157.259852 38.570667-114.782815 0-158.170074-46.250667-158.170074-155.306667V353.317926c0-5.783704 0-9.642667-7.746371-9.642667h-67.508148V257.801481c84.906667-9.671111 118.641778-52.110222 129.251556-157.25037h91.648v137.007408c0 6.731852 0 9.642667 7.727407 9.642666h135.992889v96.455111H2250.526815v230.52326c0 56.907852 13.520593 79.075556 65.583407 79.075555 27.041185 0 54.983111-6.731852 78.127408-15.416889l26.074074 84.897185" fill="#2F2707" p-id="51388"></path><path d="M991.092148 469.617778L550.051556 28.60563a65.042963 65.042963 0 0 0-91.998815 0l-91.58163 91.591111 116.176593 116.167111a77.226667 77.226667 0 0 1 79.483259 18.517333 77.340444 77.340444 0 0 1 18.356148 79.966815L692.434963 446.814815c27.088593-9.329778 58.349037-3.290074 79.976296 18.375111a77.37837 77.37837 0 0 1 0 109.463704 77.406815 77.406815 0 0 1-126.331259-84.195556L541.669926 386.048l-0.009482 274.773333a78.203259 78.203259 0 0 1 20.470519 14.639408 77.406815 77.406815 0 0 1 0 109.482666c-30.245926 30.245926-79.265185 30.245926-109.463704 0a77.406815 77.406815 0 0 1 25.334519-126.369185v-277.333333a76.458667 76.458667 0 0 1-25.334519-16.896c-22.907259-22.878815-28.416-56.490667-16.677926-84.622222l-114.517333-114.536297L19.06963 467.569778a65.071407 65.071407 0 0 0 0 92.027259l441.040592 441.02163a65.061926 65.061926 0 0 0 91.998815 0l438.983111-438.964148a65.099852 65.099852 0 0 0 0-92.036741" fill="#DE4C36" p-id="51389"></path></svg>