<?xml version="1.0" standalone="no"?><!DOCTYPE svg PUBLIC "-//W3C//DTD SVG 1.1//EN" "http://www.w3.org/Graphics/SVG/1.1/DTD/svg11.dtd"><svg t="1679845045318" class="icon" viewBox="0 0 3933 1024" version="1.1" xmlns="http://www.w3.org/2000/svg" p-id="72379" xmlns:xlink="http://www.w3.org/1999/xlink" width="768.1640625" height="200"><path d="M3829.693561 704.811538s7.679056-0.188608 22.255792 0c14.549791 0.188608 18.537511 11.127896 18.537511 11.127896s29.234302 53.780338 37.075022 66.767373c6.978511 11.585945-1.401091 11.370392-3.314119 11.181784l-0.40416-0.053888 0.40416 0.053888c-0.080832 0.107776-8.271826 0.377217-93.064773-0.053888-118.284411-16.031714-122.326019-122.406852-122.326019-122.406852v-189.201169h-66.74043V411.714085c0-9.619028 11.127896-11.127896 11.127896-11.127896h55.58559v-70.485653c0-11.505112 11.127896-14.819231 11.127895-14.819232l61.917444-17.729189c9.349588-2.667462 12.232602 2.85607 12.232601 2.85607s3.691336-1.966916 3.691336 6.547405v97.348879h96.378893c9.403476 0 11.127896 11.127896 11.127895 11.127895v70.485654h-107.506788v163.227098c0 47.421541 51.894254 55.639478 51.894254 55.639478z m-285.418397 81.613549h-59.330814c-11.639833 0-11.100952-14.819231-11.100951-14.819231v-274.559942c0-16.651427-22.255791-22.255791-22.255791-22.255792h-122.32602c-18.268071 0-18.537511 22.282735-18.537511 22.282736v278.224334c0 10.912343-11.127896 11.127896-11.127896 11.127895h-59.30387c-13.040924 0-11.127896-14.819231-11.127895-14.819231V426.56026c0-27.725435 33.356743-33.410631 33.356743-33.410631h259.498214c25.920183 0 33.356743 33.410631 33.356743 33.410631v341.273428c0 19.399721-11.100952 18.564455-11.100952 18.564455z m-422.617536-155.817482h-229.832808v55.639478c0 20.073323 25.947127 25.974071 25.947128 25.974071h185.375113c13.175644 0 22.228847 11.127896 22.228847 11.127895s16.166434 33.680071 22.228847 48.229863c6.062413 14.576735-11.127896 14.819231-11.127896 14.819231H2858.495022c-33.491463 0-40.793303-40.793303-40.793303-40.793302V430.305484c0-18.13335 25.947127-25.947127 25.947127-25.947127h278.06267c27.914043 0 33.329799 33.383687 33.329799 33.383687v159.508818c0 26.917113-33.356743 33.410631-33.356743 33.410631z m-40.766359-133.534747s-2.344133-18.564455-18.537511-18.564456h-151.991426s-18.537511 4.984651-18.537512 18.564456v40.793302s0.538881 18.564455 18.537512 18.564456h151.964482s18.564455-4.58049 18.564455-22.282736v-37.075022zM2732.396834 786.425087H2673.119909c-7.813777 0-11.127896-11.127896-11.127896-11.127895V497.072858c0-17.244197-22.255791-22.282735-22.255791-22.282736h-55.58559c-15.519777 0-18.537511 22.282735-18.537511 22.282736v278.224334c0 9.214868-11.127896 11.127896-11.127896 11.127895h-59.30387c-8.244881 0-11.127896-11.127896-11.127895-11.127895V497.072858c0-17.648357-22.255791-22.282735-22.255791-22.282736h-55.58559c-16.974756 0-18.537511 22.282735-18.537512 22.282736v278.224334c0 11.909273-11.127896 11.127896-11.127895 11.127895h-59.30387c-11.127896 0-11.127896-11.127896-11.127896-11.127895v-352.428268c0-20.423595 29.638463-29.692351 29.638463-29.692351h370.723282c29.746239 0 37.075023 37.101967 37.075023 37.101967v345.018652c0 12.798427-11.127896 11.127896-11.127896 11.127895z m-537.53394-155.817482h-229.832807v55.639478c0 20.073323 25.947127 25.974071 25.947127 25.974071h185.375113c13.202588 0 22.228847 11.127896 22.228847 11.127895s16.166434 33.680071 22.255792 48.229863c6.062413 14.576735-11.127896 14.819231-11.127896 14.819231H1931.700288c-33.491463 0-40.766358-40.793303-40.766358-40.793302V430.305484c0-18.13335 25.947127-25.947127 25.947127-25.947127H2194.862894c27.940987 0 33.383687 33.383687 33.383687 33.383687v159.508818c0 26.917113-33.383687 33.410631-33.383687 33.410631z m-40.766358-133.534747s-2.344133-18.564455-18.537511-18.564456h-151.964483s-18.564455 4.984651-18.564455 18.564456v40.793302s0.538881 18.564455 18.537511 18.564456h151.991427s18.537511-4.58049 18.537511-22.282736v-37.075022zM1835.321396 786.425087h-140.863531s-103.087963-4.84993-111.225068-107.58762c-0.323329-105.485984 0-434.041816 0-434.041816h66.74043s22.228847-0.404161 22.228847 22.255791v389.530234s7.759888 32.225092 51.894254 44.511582c49.900394-0.269441 59.330814 0 59.330814 0s19.318889-6.197133 33.356743 18.564456c14.01091 24.734644 29.638463 51.921198 29.638463 51.921198s2.263301 14.819231-11.100952 14.819231z m-715.445549-22.255791V274.488002c0-21.71691 18.510567-25.974071 18.510567-25.974071h348.467491c19.480553 0 11.127896 22.255791 11.127896 22.255791s-10.858455 30.096512-18.537512 44.511582c-7.679056 14.415071-22.228847 14.819231-22.228847 14.819232H1231.073971c-21.043309 0-22.255791 18.591399-22.255792 18.591399v122.406852h255.806879c15.00784 0 7.409616 18.537511 7.409616 18.537511s-19.157225 40.874135-25.947127 51.948142c-6.789902 11.047063-22.255791 11.127896-22.255792 11.127896h-215.013576v129.843411c0 17.675301 18.537511 22.255791 18.537512 22.255791h237.269367c17.190308 0 22.228847 11.127896 22.228847 11.127896s23.495218 36.670862 33.356743 51.921198c9.888469 15.250336-3.691336 18.564455-3.691336 18.564455H1142.104694c-15.465889 0-22.228847-22.255791-22.228847-22.255791z m-219.48629-30.797057c-0.269441 42.490778-22.363567 51.948142-22.363567 51.948142s-380.854248 220.106003-405.615836 233.874416c-24.519092 10.535126-40.954967 0-40.954967 0S32.979526 788.068675 18.429735 777.910765c-14.549791-10.15791-14.900064-26.001015-14.900064-26.001015s0.404161-457.671755 0-478.876727c-0.404161-21.178029 26.054903-37.101967 26.054904-37.101967L427.763851 5.747976c24.519092-12.933147 48.364583 0 48.364583 0s351.78161 204.505394 390.742716 226.4648c38.233617 18.160295 33.518407 55.666422 33.518407 55.666422s0.215552 405.993053 0 445.493041z m-158.996881-459.36923C659.859959 227.066461 467.80272 115.787505 467.80272 115.787505s-18.753064-10.130965-37.991121 0L117.179704 295.908527s-20.773868 12.475098-20.477483 29.045694c0.323329 16.597539 0 374.791835 0 374.791834s0.269441 12.394266 11.693721 20.342764 324.325616 188.823952 324.325616 188.823952 12.879259 8.244881 32.14426 0c19.453609-10.777623 318.478755-183.03098 318.478755-183.03098s17.325029-7.409616 17.513637-40.685526c0.080832-9.56514 0.107776-46.801827 0.107777-93.549767L448.887992 804.962599v-81.61355c0-33.518407 25.947127-55.639478 25.947127-55.639478l311.419412-187.638413c11.747609-12.28649 14.172574-31.928708 14.657567-39.365268v-82.718255L448.887992 571.222903v-85.304885c0-33.545351 22.255791-48.229862 22.255791-48.229862l270.248893-163.712091z" fill="#409EFF" p-id="72380"></path></svg>