<?xml version="1.0" standalone="no"?><!DOCTYPE svg PUBLIC "-//W3C//DTD SVG 1.1//EN" "http://www.w3.org/Graphics/SVG/1.1/DTD/svg11.dtd"><svg t="1678263978191" class="icon" viewBox="0 0 1024 1024" version="1.1" xmlns="http://www.w3.org/2000/svg" p-id="6024" xmlns:xlink="http://www.w3.org/1999/xlink" width="200" height="200"><path d="M919.96 401.79c-4.56-4.91-11.44-7.36-19.9-4.52-33.98 11.41-66.22-25.34-82.64-50.78-18-27.89-38.47-83.12-8.77-110.2 7.72-7.04 8.22-15.76 4.77-22.89-1.41-4.2-4.32-8.09-9.07-11.03-54.97-34.02-109.95-68.04-164.93-102.06-5.88-3.64-11.63-4.03-16.58-2.33-6.84 1.22-12.81 6-14.69 15.24-7.78 38.21-59.92 47.09-91.55 47.69-31.47 0.6-83.95-10.28-91.58-47.69-2.2-10.81-9.97-15.51-18.2-15.56-4.06-0.58-8.5 0.14-13.03 2.65l-166.82 92.44c-1.89 0.74-3.57 1.75-5.03 2.96-4.91 3.48-7.42 8.13-8.07 12.99-1.81 6.34-0.47 13.43 5.95 19.36 0.63 0.71 1.31 1.38 2.05 1.99 27.42 28.15 5.97 80.27-10.68 108.31-15.37 25.89-49.38 61.96-82.64 50.79-9.99-3.35-17.78 0.68-22.15 7.42-2.83 3.35-4.66 7.82-4.8 13.41L97 605.91c-0.17 7.36 2.67 12.77 6.95 16.24 4.56 4.96 11.47 7.45 19.97 4.6 33.98-11.42 66.22 25.34 82.63 50.78 18 27.89 38.48 83.13 8.77 110.21-7.75 7.05-8.23 15.8-4.73 22.94 1.42 4.17 4.32 8.03 9.04 10.96L384.56 923.7c5.85 3.62 11.57 4.02 16.5 2.36 6.87-1.2 12.87-5.98 14.76-15.26 7.79-38.21 59.92-47.08 91.57-47.69 31.46-0.6 83.94 10.27 91.56 47.69 2.2 10.82 9.99 15.52 18.23 15.56 4.05 0.57 8.49-0.15 13.01-2.66l169.54-93.94c6.45-3.57 9.63-8.86 10.38-14.44 1.82-6.38 0.45-13.52-6.07-19.47-30.34-27.66-8.27-81.52 8.76-110.2 15.37-25.89 49.38-61.97 82.63-50.79 9.99 3.35 17.78-0.68 22.15-7.42 2.83-3.35 4.65-7.81 4.78-13.4l4.62-195.94c0.19-7.42-2.69-12.85-7.02-16.31z m-39.55 187.26c-85.77 1.01-164.04 138.85-123.53 215.26l-126.42 70.04c-43.62-74.64-200.87-74.98-245.53-1.02-40.99-25.37-81.99-50.74-122.98-76.1 41.59-75.85-36.11-213.98-121.8-216.26l3.43-146c85.77-1.02 164.05-138.84 123.54-215.25l126.41-70.05c43.63 74.64 200.89 74.99 245.54 1.02l122.97 76.1c-41.58 75.85 36.11 214 121.81 216.27l-3.44 145.99zM512.02 334.49c-96.55-1.84-173.15 82.32-174.91 177.55-1.81 97.95 81.09 175.68 174.91 177.48 95.65 1.83 171.71-80.83 174.79-174.92 0.07-0.83 0.1-1.68 0.08-2.56 0.02-0.88-0.01-1.73-0.08-2.55-3.08-96.79-79.11-173.17-174.79-175z m0 311.83c-73.23 1.4-131.02-62.13-132.36-134.29-1.38-74.34 61.2-133 132.36-134.36 73.2-1.39 130.99 62.14 132.32 134.36-1.38 74.26-59.13 132.9-132.32 134.29z" p-id="6025"></path></svg>