<?xml version="1.0" standalone="no"?><!DOCTYPE svg PUBLIC "-//W3C//DTD SVG 1.1//EN" "http://www.w3.org/Graphics/SVG/1.1/DTD/svg11.dtd"><svg t="1678264794817" class="icon" viewBox="0 0 1024 1024" version="1.1" xmlns="http://www.w3.org/2000/svg" p-id="23364" xmlns:xlink="http://www.w3.org/1999/xlink" width="200" height="200"><path d="M848 162c8.82 0 16 7.18 16 16v670c0 8.82-7.18 16-16 16H178c-8.82 0-16-7.18-16-16V178c0-8.82 7.18-16 16-16h670m0-64H178c-44.18 0-80 35.82-80 80v670c0 44.18 35.82 80 80 80h670c44.18 0 80-35.82 80-80V178c0-44.18-35.82-80-80-80z" p-id="23365"></path><path d="M892 352.67H113v64h779v-64z" p-id="23366"></path><path d="M417.67 374h-64v554h64V374zM673.33 374h-64v554h64V374z" p-id="23367"></path><path d="M905 607.33H126v64h779v-64z" p-id="23368"></path></svg>