<?xml version="1.0" standalone="no"?><!DOCTYPE svg PUBLIC "-//W3C//DTD SVG 1.1//EN" "http://www.w3.org/Graphics/SVG/1.1/DTD/svg11.dtd"><svg t="1678530559153" class="icon" viewBox="0 0 1097 1024" version="1.1" xmlns="http://www.w3.org/2000/svg" p-id="3599" xmlns:xlink="http://www.w3.org/1999/xlink" width="214.2578125" height="200"><path d="M275.060823 105.296147h621.0626c59.239367 0 99.171089 27.206228 121.623541 72.037996 11.189658 23.988287 16.01657 49.585544 16.016569 67.284219l-1.60897 9.507553-102.38903 360.18998c-4.826911 19.161376-24.134557 28.815198-43.295933 23.988287-19.161376-4.826911-28.815198-23.988287-23.988287-43.149663l102.38903-360.189979-1.535835 9.580687c0-8.044852-1.60897-22.379317-8.044853-35.177945-9.580688-20.843481-27.206228-32.033139-57.630396-32.033139H270.233911l49.65868 49.585544c14.334464 14.407599 14.334464 36.860051 0 49.65868-14.407599 14.407599-36.860051 14.407599-49.65868 0L163.01797 169.28929c-14.407599-14.407599-14.407599-36.786916 0-49.585544L270.233911 10.878834c14.407599-14.407599 36.786916-14.407599 49.65868 0 14.334464 14.407599 14.334464 36.786916 0 49.585545l-44.831768 44.831768z m483.71503 813.407706H137.713253c-59.239367 0-99.244224-27.206228-121.62354-72.037996a169.234439 169.234439 0 0 1-16.01657-67.284219l1.60897-9.507553 102.38903-360.18998c4.826911-19.161376 24.061422-28.815198 43.295933-23.988287 19.161376 4.826911 28.742063 23.988287 23.988287 43.149663L70.502168 789.108596l1.608971-9.580688c0 8.044852 1.60897 22.379317 8.044852 35.177945 9.507553 20.843481 27.133093 32.033139 57.557262 32.033139h627.498482l-49.658679-49.585544c-14.407599-14.407599-14.407599-36.860051 0-49.65868 14.407599-14.407599 36.860051-14.407599 49.658679 0l107.215941 107.289077c14.407599 14.407599 14.407599 36.786916 0 49.585544l-108.824911 108.824912c-14.407599 14.407599-36.860051 14.407599-49.65868 0-14.407599-14.407599-14.407599-36.786916 0-49.585545l44.831768-44.831768z" p-id="3600"></path><path d="M366.113924 714.072064a36.933186 36.933186 0 0 1-36.933186-36.933186V366.095633a36.933186 36.933186 0 0 1 73.866372 0v311.043245c0 20.477806-16.528515 36.933186-36.933186 36.933186z m155.777595 0a36.933186 36.933186 0 0 1-36.86005-36.933186v-202.584009a36.933186 36.933186 0 0 1 73.866371 0v202.584009c0 20.477806-16.528515 36.933186-36.933186 36.933186z m155.923866 0a36.933186 36.933186 0 0 1-37.006321-36.933186v-113.359283a36.933186 36.933186 0 0 1 73.866371 0v113.359283c0 20.477806-16.45538 36.933186-36.86005 36.933186z" p-id="3601"></path></svg>