<?xml version="1.0" standalone="no"?><!DOCTYPE svg PUBLIC "-//W3C//DTD SVG 1.1//EN" "http://www.w3.org/Graphics/SVG/1.1/DTD/svg11.dtd"><svg t="1678564080850" class="icon" viewBox="0 0 1024 1024" version="1.1" xmlns="http://www.w3.org/2000/svg" p-id="8251" xmlns:xlink="http://www.w3.org/1999/xlink" width="200" height="200"><path d="M426.666667 56.888889a56.888889 56.888889 0 0 1 56.888889 56.888889v312.888889a56.888889 56.888889 0 0 1-56.888889 56.888889H113.777778a56.888889 56.888889 0 0 1-56.888889-56.888889V113.777778a56.888889 56.888889 0 0 1 56.888889-56.888889h312.888889zM113.777778 113.777778v312.888889h312.888889V113.777778H113.777778zM426.666667 540.444444a56.888889 56.888889 0 0 1 56.888889 56.888889V910.222222a56.888889 56.888889 0 0 1-56.888889 56.888889H113.777778a56.888889 56.888889 0 0 1-56.888889-56.888889v-312.888889a56.888889 56.888889 0 0 1 56.888889-56.888889h312.888889z m0 56.888889H113.777778V910.222222h312.888889v-312.888889zM910.222222 56.888889a56.888889 56.888889 0 0 1 56.888889 56.888889v312.888889a56.888889 56.888889 0 0 1-56.888889 56.888889h-312.888889a56.888889 56.888889 0 0 1-56.888889-56.888889V113.777778a56.888889 56.888889 0 0 1 56.888889-56.888889H910.222222z m0 369.777778V113.777778h-312.888889v312.888889H910.222222zM910.222222 540.444444a56.888889 56.888889 0 0 1 56.888889 56.888889V910.222222a56.888889 56.888889 0 0 1-56.888889 56.888889h-312.888889a56.888889 56.888889 0 0 1-56.888889-56.888889v-312.888889a56.888889 56.888889 0 0 1 56.888889-56.888889H910.222222z m0 56.888889h-312.888889V910.222222H910.222222v-312.888889z" p-id="8252"></path></svg>