<?xml version="1.0" standalone="no"?><!DOCTYPE svg PUBLIC "-//W3C//DTD SVG 1.1//EN" "http://www.w3.org/Graphics/SVG/1.1/DTD/svg11.dtd"><svg t="1678285189279" class="icon" viewBox="0 0 1024 1024" version="1.1" xmlns="http://www.w3.org/2000/svg" p-id="8188" xmlns:xlink="http://www.w3.org/1999/xlink" width="200" height="200"><path d="M662.357333 542.634667l297.642667 176.64-127.146667 37.034666 90.88 160.170667-73.984 43.52-90.88-160.085333L663.893333 893.44l-1.536-350.805333zM576.853333 237.994667h85.504v87.04h213.674667c23.637333 0 42.752 19.541333 42.752 43.52v174.08H833.28v-130.56H405.930667v435.114666H576.853333v87.04H363.178667a43.093333 43.093333 0 0 1-42.666667-43.52v-217.6H234.837333v-87.04h85.504V368.64c0-23.978667 19.114667-43.52 42.752-43.52H576.853333V238.08zM149.504 586.24v87.04H64v-87.04h85.504z m0-174.08v87.04H64v-87.04h85.504z m0-174.08v87.04H64V238.08h85.504z m0-173.994667v87.04H64V64h85.504z m170.922667 0v87.04H234.922667V64h85.504z m171.008 0v87.04H405.930667V64h85.504z m170.922666 0v87.04H576.853333V64h85.504z"  p-id="8189"></path></svg>