<?xml version="1.0" standalone="no"?><!DOCTYPE svg PUBLIC "-//W3C//DTD SVG 1.1//EN" "http://www.w3.org/Graphics/SVG/1.1/DTD/svg11.dtd"><svg t="1676645483077" class="icon" viewBox="0 0 1024 1024" version="1.1" xmlns="http://www.w3.org/2000/svg" p-id="1719" xmlns:xlink="http://www.w3.org/1999/xlink" width="200" height="200"><path d="M862 902c0 16.569-13.431 30-30 30H192c-16.569 0-30-13.431-30-30V122c0-16.569 13.431-30 30-30h476l194 194v616z" fill="#60C267" p-id="1720"></path><path d="M862 286H698c-16.569 0-30-13.431-30-30V92" fill="#FFFFFF" fill-opacity=".296" p-id="1721"></path><path d="M495.93 707.9c93.59 0 130.83-35.77 130.83-102.41 0-63.21-17.64-88.69-98.98-108.29-49.98-11.76-57.82-19.6-57.82-41.65 0-28.91 16.17-36.26 54.88-36.26 28.42 0 67.62 6.86 84.28 12.25v-61.25c-18.13-6.37-48.51-12.25-87.22-12.25-78.89 0-124.46 27.44-124.46 99.47 0 60.76 21.07 81.34 93.59 98 51.94 12.74 61.74 22.05 61.74 48.02 0 30.38-14.7 40.67-59.78 40.67-34.3 0-74.97-5.88-96.04-13.72v65.17c21.07 5.88 59.29 12.25 98.98 12.25z" fill="#FFFFFF" p-id="1722"></path></svg>